<?xml version="1.0" encoding="utf-8"?>
<!-- Generator: Adobe Illustrator 22.0.1, SVG Export Plug-In . SVG Version: 6.00 Build 0)  -->
<svg version="1.1" id="Слой_1" xmlns="http://www.w3.org/2000/svg" xmlns:xlink="http://www.w3.org/1999/xlink" x="0px" y="0px"
	 viewBox="0 0 650 200" style="enable-background:new 0 0 650 200;" xml:space="preserve">
<style type="text/css">
	.st0{fill-rule:evenodd;clip-rule:evenodd;fill:#1A844F;}
</style>
<path class="st0" d="M69.4,27.7c19.1-2.9,39.2-1.2,57,6.7c12.4,5.5,23.6,14.8,29.6,27.2c7.2,14.8,6.4,33.2-2.3,47.2
	c-9.1,14.9-25.3,23.9-41.9,28c-17.3,4.2-35.7,4.1-52.9-0.5c-15.4-4.2-30.4-12.8-39.2-26.5c-8.5-12.9-10.1-29.9-4.6-44.3
	C19.5,54.4,28,45.2,38,39C47.6,33.1,58.4,29.6,69.4,27.7L69.4,27.7z M74.4,45.8c-12.6,1.8-25.6,6.9-33.5,17.4
	c-7.8,10.4-8.5,25.5-2.1,36.7c4.6,8.1,12.6,13.7,21.2,17c13.6,5,28.7,5.7,42.9,2.9c10.6-2.2,21.3-6.9,28.3-15.4
	c7.7-9.3,9.4-22.8,5-33.9c-3.5-8.8-11-15.5-19.4-19.4C103.6,45,88.6,43.9,74.4,45.8L74.4,45.8z M194.2,41.4
	c17.2-12.1,39-16.1,59.7-14.6c18,1.3,36.3,6.9,49.9,19.2c10.4,9.3,17,22.9,16.7,37c0.4,14.6-6.5,28.8-17.5,38.3
	c-12.7,11.2-29.5,16.6-46.2,18.3c-21.6,2-44.7-1.7-62.6-14.4c-0.3,16.8,0,33.7-0.1,50.5c-7.5,0-15,0-22.5,0c0-48,0-95.9,0-143.8
	c7.5,0,15,0,22.5,0C194.2,34.9,194.2,38.1,194.2,41.4L194.2,41.4z M234.4,45.8c-12.1,1.8-24.6,6.4-32.7,16.1
	c-8.3,9.9-9.8,24.6-4.3,36.2c3.9,8.2,11.4,14.2,19.6,17.8c14,6,29.9,6.9,44.8,4.2c10.6-2.1,21.1-6.5,28.4-14.8
	c7-7.9,9.6-19.3,7.3-29.5c-2-10.3-9.6-18.8-18.7-23.5C265.2,45.2,249.3,43.9,234.4,45.8L234.4,45.8z M354,41.4
	c14.4-10.4,32.4-14.5,49.9-15c18.5,0,37.6,3.7,53.1,14.3c11.1,7.5,19.8,19,22.4,32.3c3.1,14.2-0.5,29.6-9.6,40.9
	c-10.5,13.2-26.6,20.9-42.9,24c-24.7,4.8-51.8,1.6-72.9-12.8c0,16.8,0,33.6,0,50.4c-7.5,0.1-15,0-22.5,0c0-48,0-95.9,0-143.9
	c7.5,0,15,0,22.5,0C353.9,34.9,353.9,38.2,354,41.4L354,41.4z M393.6,45.9c-12.8,1.9-26,7.2-33.7,18c-8,11.3-7.9,27.6,0.2,38.8
	c5.6,7.7,14.2,12.8,23.2,15.5c14.8,4.3,30.9,4.3,45.7-0.1c8.6-2.7,17-7.4,22.5-14.7c7.7-10.1,8.8-24.8,2.8-36
	c-3.9-7.5-10.8-13-18.4-16.5C422.7,45,407.8,44,393.6,45.9L393.6,45.9z M554.9,26.9c17.8-1.7,36.2,0.7,52.4,8.5
	c11.9,5.7,22.5,15.1,28,27.3C641.8,77,641,94.5,633,108c-5.7,9.7-14.6,17.2-24.6,22.3c-13.9,7-29.7,9.8-45.1,9.6
	c-15.3-0.3-30.8-3.6-44.2-11.2c-9.9-5.6-18.6-13.8-23.5-24.2c-7.1-14.8-6.3-33.2,2.5-47.1C510,38.1,533,28.9,554.9,26.9L554.9,26.9z
	 M552.7,45.9c-13.1,1.9-26.6,7.5-34.2,18.9c-7.1,10.8-7.2,25.8-0.1,36.7c5.5,8.6,14.9,14,24.5,16.9c14.6,4.2,30.4,4.2,45-0.1
	c9.1-2.8,18-7.8,23.5-15.8c6.4-9.1,7.5-21.3,3.6-31.6c-3.7-9.6-12.1-16.6-21.3-20.5C580.8,44.9,566.4,43.9,552.7,45.9z"/>
</svg>
